<svg width="32" height="32" viewBox="0 0 32 32" fill="none" xmlns="http://www.w3.org/2000/svg">
<path fill-rule="evenodd" clip-rule="evenodd" d="M7 13.0587L14.7403 17.5275C14.8236 17.5756 14.911 17.6104 15 17.6324V26.2996L7.55204 21.8919C7.20987 21.6894 7 21.3213 7 20.9237V13.0587ZM25.0001 12.9399V20.9238C25.0001 21.3214 24.7902 21.6895 24.448 21.892L17.0001 26.2997V17.5566C17.0182 17.5475 17.0362 17.5379 17.054 17.5276L25.0001 12.9399Z" fill="#0A44A5"/>
<path opacity="0.3" fill-rule="evenodd" clip-rule="evenodd" d="M7 10.7942C7.09213 10.6703 7.20842 10.5656 7.344 10.4888L15.0182 6.13701C15.3403 5.95433 15.7268 5.95433 16.0489 6.13701L23.7231 10.4888C23.8276 10.548 23.9206 10.6238 24 10.7122L15.5861 15.8841C15.5308 15.9181 15.4798 15.957 15.4333 16C15.3868 15.957 15.3358 15.9181 15.2805 15.8841L7 10.7942Z" fill="#0A44A5"/>
</svg>
