<svg width="32" height="32" viewBox="0 0 32 32" fill="none" xmlns="http://www.w3.org/2000/svg">
<path d="M23.723 8.03377C22.9314 7.18648 21.5881 7.18596 20.7958 8.03265L8.4679 21.2078C7.74882 21.9763 7.75953 23.1826 8.47801 23.9516C9.26899 24.7982 10.6244 24.8114 11.4147 23.9642L23.7241 10.7684C24.4425 9.99824 24.442 8.80337 23.723 8.03377Z" fill="#0A44A5"/>
<path opacity="0.3" fill-rule="evenodd" clip-rule="evenodd" d="M9.66258 13.3214C11.6837 13.3214 13.3214 11.6841 13.3214 9.66071C13.3214 7.6373 11.6837 6 9.66258 6C7.64146 6 6 7.6373 6 9.66071C6 11.6841 7.64146 13.3214 9.66258 13.3214ZM22.3411 26C24.3622 26 26 24.3627 26 22.3392C26 20.3121 24.3622 18.6785 22.3411 18.6785C20.32 18.6785 18.6785 20.3121 18.6785 22.3392C18.6785 24.3627 20.32 26 22.3411 26Z" fill="#0A44A5"/>
</svg>
