<svg width="32" height="32" viewBox="0 0 32 32" fill="none" xmlns="http://www.w3.org/2000/svg">
<path opacity="0.3" fill-rule="evenodd" clip-rule="evenodd" d="M9.5 11C8.67157 11 8 11.6716 8 12.5C8 13.3284 8.67157 14 9.5 14H14.5C15.3284 14 16 13.3284 16 12.5C16 11.6716 15.3284 11 14.5 11H9.5ZM17.5 19C16.6716 19 16 19.6716 16 20.5C16 21.3284 16.6716 22 17.5 22H22.5C23.3284 22 24 21.3284 24 20.5C24 19.6716 23.3284 19 22.5 19H17.5Z" fill="#0A44A5"/>
<path fill-rule="evenodd" clip-rule="evenodd" d="M24 12C24 13.6569 22.6569 15 21 15C19.3431 15 18 13.6569 18 12C18 10.3431 19.3431 9 21 9C22.6569 9 24 10.3431 24 12ZM14 20C14 21.6569 12.6569 23 11 23C9.34315 23 8 21.6569 8 20C8 18.3431 9.34315 17 11 17C12.6569 17 14 18.3431 14 20Z" fill="#0A44A5"/>
</svg>
