<svg width="32" height="32" viewBox="0 0 32 32" fill="none" xmlns="http://www.w3.org/2000/svg">
<rect opacity="0.3" x="9.33325" y="5.3335" width="13.3333" height="5.33333" fill="white"/>
<path fill-rule="evenodd" clip-rule="evenodd" d="M8.66675 2.6665C7.56218 2.6665 6.66675 3.56193 6.66675 4.6665V27.3332C6.66675 28.4377 7.56218 29.3332 8.66675 29.3332H23.3334C24.438 29.3332 25.3334 28.4377 25.3334 27.3332V4.6665C25.3334 3.56193 24.438 2.6665 23.3334 2.6665H8.66675ZM12.0001 14.6665C12.0001 15.4029 11.4031 15.9998 10.6667 15.9998C9.93037 15.9998 9.33341 15.4029 9.33341 14.6665C9.33341 13.9301 9.93037 13.3332 10.6667 13.3332C11.4031 13.3332 12.0001 13.9301 12.0001 14.6665ZM10.6667 21.3332C11.4031 21.3332 12.0001 20.7362 12.0001 19.9998C12.0001 19.2635 11.4031 18.6665 10.6667 18.6665C9.93037 18.6665 9.33341 19.2635 9.33341 19.9998C9.33341 20.7362 9.93037 21.3332 10.6667 21.3332ZM17.3334 14.6665C17.3334 15.4029 16.7365 15.9998 16.0001 15.9998C15.2637 15.9998 14.6667 15.4029 14.6667 14.6665C14.6667 13.9301 15.2637 13.3332 16.0001 13.3332C16.7365 13.3332 17.3334 13.9301 17.3334 14.6665ZM16.0001 21.3332C16.7365 21.3332 17.3334 20.7362 17.3334 19.9998C17.3334 19.2635 16.7365 18.6665 16.0001 18.6665C15.2637 18.6665 14.6667 19.2635 14.6667 19.9998C14.6667 20.7362 15.2637 21.3332 16.0001 21.3332ZM22.6667 14.6665C22.6667 15.4029 22.0698 15.9998 21.3334 15.9998C20.597 15.9998 20.0001 15.4029 20.0001 14.6665C20.0001 13.9301 20.597 13.3332 21.3334 13.3332C22.0698 13.3332 22.6667 13.9301 22.6667 14.6665ZM21.3334 21.3332C22.0698 21.3332 22.6667 20.7362 22.6667 19.9998C22.6667 19.2635 22.0698 18.6665 21.3334 18.6665C20.597 18.6665 20.0001 19.2635 20.0001 19.9998C20.0001 20.7362 20.597 21.3332 21.3334 21.3332ZM22.6667 25.3332C22.6667 26.0695 22.0698 26.6665 21.3334 26.6665C20.597 26.6665 20.0001 26.0695 20.0001 25.3332C20.0001 24.5968 20.597 23.9998 21.3334 23.9998C22.0698 23.9998 22.6667 24.5968 22.6667 25.3332ZM9.33341 25.3332C9.33341 24.5968 9.93037 23.9998 10.6667 23.9998H16.0001C16.7365 23.9998 17.3334 24.5968 17.3334 25.3332C17.3334 26.0695 16.7365 26.6665 16.0001 26.6665H10.6667C9.93037 26.6665 9.33341 26.0695 9.33341 25.3332ZM22.6667 5.33317H9.33341V10.6665H22.6667V5.33317Z" fill="#0A44A5"/>
</svg>
