<svg width="20" height="20" viewBox="0 0 20 20" fill="none" xmlns="http://www.w3.org/2000/svg">
<path fill-rule="evenodd" clip-rule="evenodd" d="M2.91661 3.3335H17.0833C17.7736 3.3335 18.3333 3.89314 18.3333 4.5835V4.98865C18.3334 4.99582 18.3334 5.00298 18.3333 5.01014V15.4168C18.3333 16.1072 17.7736 16.6668 17.0833 16.6668H2.91661C2.22625 16.6668 1.66661 16.1072 1.66661 15.4168V5.01272C1.66647 5.00384 1.66647 4.99497 1.66661 4.98608V4.5835C1.66661 3.89314 2.22625 3.3335 2.91661 3.3335ZM3.33328 6.55728V15.0002H16.6666V6.55725L10.4622 10.6935C10.1823 10.8802 9.81759 10.8802 9.53767 10.6935L3.33328 6.55728ZM15.9976 5.00016L9.99992 8.99862L4.00223 5.00016H15.9976Z" fill="#051033" fill-opacity="0.01"/>
<mask id="mask0" mask-type="alpha" maskUnits="userSpaceOnUse" x="1" y="3" width="18" height="14">
<path fill-rule="evenodd" clip-rule="evenodd" d="M2.91661 3.3335H17.0833C17.7736 3.3335 18.3333 3.89314 18.3333 4.5835V4.98865C18.3334 4.99582 18.3334 5.00298 18.3333 5.01014V15.4168C18.3333 16.1072 17.7736 16.6668 17.0833 16.6668H2.91661C2.22625 16.6668 1.66661 16.1072 1.66661 15.4168V5.01272C1.66647 5.00384 1.66647 4.99497 1.66661 4.98608V4.5835C1.66661 3.89314 2.22625 3.3335 2.91661 3.3335ZM3.33328 6.55728V15.0002H16.6666V6.55725L10.4622 10.6935C10.1823 10.8802 9.81759 10.8802 9.53767 10.6935L3.33328 6.55728ZM15.9976 5.00016L9.99992 8.99862L4.00223 5.00016H15.9976Z" fill="white"/>
</mask>
<g mask="url(#mask0)">
<rect width="20" height="20" fill="#182C4F"/>
</g>
</svg>
