<svg width="24" height="24" viewBox="0 0 24 24" fill="none" xmlns="http://www.w3.org/2000/svg">
<mask id="mask0" mask-type="alpha" maskUnits="userSpaceOnUse" x="6" y="2" width="12" height="20">
<path d="M17 3H14.2727C13.0672 3 11.911 3.47411 11.0586 4.31802C10.2062 5.16193 9.72727 6.30653 9.72727 7.5V10.2H7V13.8H9.72727V21H13.3636V13.8H16.0909L17 10.2H13.3636V7.5C13.3636 7.26131 13.4594 7.03239 13.6299 6.8636C13.8004 6.69482 14.0316 6.6 14.2727 6.6H17V3Z" stroke="black" stroke-width="1.5" stroke-linecap="round" stroke-linejoin="round"/>
</mask>
<g mask="url(#mask0)">
<path d="M17 3H14.2727C13.0672 3 11.911 3.47411 11.0586 4.31802C10.2062 5.16193 9.72727 6.30653 9.72727 7.5V10.2H7V13.8H9.72727V21H13.3636V13.8H16.0909L17 10.2H13.3636V7.5C13.3636 7.26131 13.4594 7.03239 13.6299 6.8636C13.8004 6.69482 14.0316 6.6 14.2727 6.6H17V3Z" stroke="black" stroke-width="1.5" stroke-linecap="round" stroke-linejoin="round"/>
<rect width="24" height="24" fill="white"/>
</g>
</svg>
