<svg width="24" height="24" viewBox="0 0 24 24" fill="none" xmlns="http://www.w3.org/2000/svg">
<mask id="mask0" mask-type="alpha" maskUnits="userSpaceOnUse" x="3" y="3" width="18" height="18">
<path d="M19.5001 15.6901V17.9401C19.5009 18.1489 19.4581 18.3557 19.3745 18.5471C19.2908 18.7385 19.168 18.9103 19.0141 19.0515C18.8602 19.1927 18.6785 19.3002 18.4806 19.3671C18.2828 19.434 18.0731 19.4589 17.8651 19.4401C15.5572 19.1893 13.3403 18.4007 11.3926 17.1376C9.58044 15.9861 8.04407 14.4497 6.89257 12.6376C5.62506 10.681 4.83625 8.45332 4.59007 6.13507C4.57133 5.92767 4.59598 5.71864 4.66245 5.52129C4.72892 5.32394 4.83575 5.14259 4.97615 4.98879C5.11654 4.83499 5.28743 4.7121 5.47792 4.62796C5.6684 4.54382 5.87433 4.50027 6.08257 4.50007H8.33257C8.69655 4.49649 9.04942 4.62538 9.32539 4.86272C9.60137 5.10006 9.78163 5.42966 9.83257 5.79007C9.92754 6.51012 10.1037 7.21712 10.3576 7.89757C10.4585 8.16602 10.4803 8.45776 10.4205 8.73823C10.3607 9.01871 10.2217 9.27616 10.0201 9.48007L9.06757 10.4326C10.1352 12.3102 11.6899 13.8649 13.5676 14.9326L14.5201 13.9801C14.724 13.7784 14.9814 13.6395 15.2619 13.5796C15.5424 13.5198 15.8341 13.5417 16.1026 13.6426C16.783 13.8965 17.49 14.0726 18.2101 14.1676C18.5744 14.219 18.9071 14.4025 19.145 14.6832C19.3828 14.9639 19.5092 15.3223 19.5001 15.6901Z" stroke="black" stroke-width="1.5" stroke-linecap="round" stroke-linejoin="round"/>
</mask>
<g mask="url(#mask0)">
<path d="M19.5001 15.6901V17.9401C19.5009 18.1489 19.4581 18.3557 19.3745 18.5471C19.2908 18.7385 19.168 18.9103 19.0141 19.0515C18.8602 19.1927 18.6785 19.3002 18.4806 19.3671C18.2828 19.434 18.0731 19.4589 17.8651 19.4401C15.5572 19.1893 13.3403 18.4007 11.3926 17.1376C9.58044 15.9861 8.04407 14.4497 6.89257 12.6376C5.62506 10.681 4.83625 8.45332 4.59007 6.13507C4.57133 5.92767 4.59598 5.71864 4.66245 5.52129C4.72892 5.32394 4.83575 5.14259 4.97615 4.98879C5.11654 4.83499 5.28743 4.7121 5.47792 4.62796C5.6684 4.54382 5.87433 4.50027 6.08257 4.50007H8.33257C8.69655 4.49649 9.04942 4.62538 9.32539 4.86272C9.60137 5.10006 9.78163 5.42966 9.83257 5.79007C9.92754 6.51012 10.1037 7.21712 10.3576 7.89757C10.4585 8.16602 10.4803 8.45776 10.4205 8.73823C10.3607 9.01871 10.2217 9.27616 10.0201 9.48007L9.06757 10.4326C10.1352 12.3102 11.6899 13.8649 13.5676 14.9326L14.5201 13.9801C14.724 13.7784 14.9814 13.6395 15.2619 13.5796C15.5424 13.5198 15.8341 13.5417 16.1026 13.6426C16.783 13.8965 17.49 14.0726 18.2101 14.1676C18.5744 14.219 18.9071 14.4025 19.145 14.6832C19.3828 14.9639 19.5092 15.3223 19.5001 15.6901Z" stroke="black" stroke-width="1.5" stroke-linecap="round" stroke-linejoin="round"/>
<rect x="1" width="24" height="24" fill="#182C4F"/>
</g>
</svg>
