<svg width="24" height="24" viewBox="0 0 24 24" fill="none" xmlns="http://www.w3.org/2000/svg">
<path fill-rule="evenodd" clip-rule="evenodd" d="M3.50011 4H20.5001C21.3285 4 22.0001 4.67157 22.0001 5.5V5.98452C22.0002 5.99423 22.0002 6.00394 22.0001 6.01364V18.5C22.0001 19.3284 21.3285 20 20.5001 20H3.50011C2.67168 20 2.00011 19.3284 2.00011 18.5V6.01367C1.99996 6.00395 1.99996 5.99422 2.00011 5.98449V5.5C2.00011 4.67157 2.67168 4 3.50011 4ZM4.00011 7.86852V18H20.0001V7.86852L12.5548 12.8321C12.2189 13.056 11.7813 13.056 11.4454 12.8321L4.00011 7.86852ZM19.1973 6L12.0001 10.7981L4.80288 6H19.1973Z" fill="#051033" fill-opacity="0.01"/>
<mask id="mask0" mask-type="alpha" maskUnits="userSpaceOnUse" x="2" y="4" width="21" height="16">
<path fill-rule="evenodd" clip-rule="evenodd" d="M3.50011 4H20.5001C21.3285 4 22.0001 4.67157 22.0001 5.5V5.98452C22.0002 5.99423 22.0002 6.00394 22.0001 6.01364V18.5C22.0001 19.3284 21.3285 20 20.5001 20H3.50011C2.67168 20 2.00011 19.3284 2.00011 18.5V6.01367C1.99996 6.00395 1.99996 5.99422 2.00011 5.98449V5.5C2.00011 4.67157 2.67168 4 3.50011 4ZM4.00011 7.86852V18H20.0001V7.86852L12.5548 12.8321C12.2189 13.056 11.7813 13.056 11.4454 12.8321L4.00011 7.86852ZM19.1973 6L12.0001 10.7981L4.80288 6H19.1973Z" fill="white"/>
</mask>
<g mask="url(#mask0)">
<rect width="24" height="24" fill="#182C4F"/>
</g>
</svg>
