<svg width="24" height="24" viewBox="0 0 24 24" fill="none" xmlns="http://www.w3.org/2000/svg">
<path fill-rule="evenodd" clip-rule="evenodd" d="M3 10C3 14.5933 5.90637 18.8636 11.7191 22.811C11.8887 22.9261 12.1113 22.9261 12.2809 22.811C18.0936 18.8636 21 14.5933 21 10C21 5.02944 16.9706 1 12 1C7.02944 1 3 5.02944 3 10ZM19 10C19 6.13401 15.866 3 12 3C8.13401 3 5 6.13401 5 10C5 13.6245 7.26024 17.1427 12 20.5665C16.7398 17.1427 19 13.6245 19 10ZM8 10C8 12.2091 9.79086 14 12 14C14.2091 14 16 12.2091 16 10C16 7.79086 14.2091 6 12 6C9.79086 6 8 7.79086 8 10ZM14 10C14 11.1046 13.1046 12 12 12C10.8954 12 10 11.1046 10 10C10 8.89543 10.8954 8 12 8C13.1046 8 14 8.89543 14 10Z" fill="#051033" fill-opacity="0.01"/>
<mask id="mask0" mask-type="alpha" maskUnits="userSpaceOnUse" x="3" y="1" width="18" height="22">
<path fill-rule="evenodd" clip-rule="evenodd" d="M3 10C3 14.5933 5.90637 18.8636 11.7191 22.811C11.8887 22.9261 12.1113 22.9261 12.2809 22.811C18.0936 18.8636 21 14.5933 21 10C21 5.02944 16.9706 1 12 1C7.02944 1 3 5.02944 3 10ZM19 10C19 6.13401 15.866 3 12 3C8.13401 3 5 6.13401 5 10C5 13.6245 7.26024 17.1427 12 20.5665C16.7398 17.1427 19 13.6245 19 10ZM8 10C8 12.2091 9.79086 14 12 14C14.2091 14 16 12.2091 16 10C16 7.79086 14.2091 6 12 6C9.79086 6 8 7.79086 8 10ZM14 10C14 11.1046 13.1046 12 12 12C10.8954 12 10 11.1046 10 10C10 8.89543 10.8954 8 12 8C13.1046 8 14 8.89543 14 10Z" fill="white"/>
</mask>
<g mask="url(#mask0)">
<rect width="24" height="24" fill="#182C4F"/>
</g>
</svg>
