<svg width="24" height="24" viewBox="0 0 24 24" fill="none" xmlns="http://www.w3.org/2000/svg">
<mask id="mask0" mask-type="alpha" maskUnits="userSpaceOnUse" x="2" y="2" width="20" height="20">
<g clip-path="url(#clip0)">
<path d="M16.1666 3.6665H7.83329C5.53211 3.6665 3.66663 5.53198 3.66663 7.83317V16.1665C3.66663 18.4677 5.53211 20.3332 7.83329 20.3332H16.1666C18.4678 20.3332 20.3333 18.4677 20.3333 16.1665V7.83317C20.3333 5.53198 18.4678 3.6665 16.1666 3.6665Z" stroke="black" stroke-width="1.5" stroke-linecap="round" stroke-linejoin="round"/>
<path d="M15.3334 11.4748C15.4362 12.1683 15.3178 12.8766 14.9948 13.4989C14.6719 14.1213 14.161 14.6259 13.5347 14.9412C12.9085 15.2564 12.1987 15.3661 11.5065 15.2547C10.8143 15.1433 10.1748 14.8165 9.67907 14.3207C9.1833 13.825 8.85648 13.1855 8.7451 12.4933C8.63371 11.8011 8.74343 11.0913 9.05865 10.4651C9.37386 9.83881 9.87853 9.32788 10.5009 9.00496C11.1232 8.68205 11.8315 8.56359 12.525 8.66643C13.2325 8.77133 13.8874 9.10098 14.3931 9.60669C14.8988 10.1124 15.2285 10.7673 15.3334 11.4748Z" stroke="black" stroke-width="1.5" stroke-linecap="round" stroke-linejoin="round"/>
</g>
</mask>
<g mask="url(#mask0)">
</g>
<mask id="mask1" mask-type="alpha" maskUnits="userSpaceOnUse" x="2" y="2" width="20" height="20">
<g clip-path="url(#clip1)">
<path d="M16.1666 3.6665H7.83329C5.53211 3.6665 3.66663 5.53198 3.66663 7.83317V16.1665C3.66663 18.4677 5.53211 20.3332 7.83329 20.3332H16.1666C18.4678 20.3332 20.3333 18.4677 20.3333 16.1665V7.83317C20.3333 5.53198 18.4678 3.6665 16.1666 3.6665Z" stroke="black" stroke-width="1.5" stroke-linecap="round" stroke-linejoin="round"/>
<path d="M15.3334 11.4748C15.4362 12.1683 15.3178 12.8766 14.9948 13.4989C14.6719 14.1213 14.161 14.6259 13.5347 14.9412C12.9085 15.2564 12.1987 15.3661 11.5065 15.2547C10.8143 15.1433 10.1748 14.8165 9.67907 14.3207C9.1833 13.825 8.85648 13.1855 8.7451 12.4933C8.63371 11.8011 8.74343 11.0913 9.05865 10.4651C9.37386 9.83881 9.87853 9.32788 10.5009 9.00496C11.1232 8.68205 11.8315 8.56359 12.525 8.66643C13.2325 8.77133 13.8874 9.10098 14.3931 9.60669C14.8988 10.1124 15.2285 10.7673 15.3334 11.4748Z" stroke="black" stroke-width="1.5" stroke-linecap="round" stroke-linejoin="round"/>
</g>
</mask>
<g mask="url(#mask1)">
<rect width="24" height="24" fill="white"/>
</g>
<defs>
<clipPath id="clip0">
<rect x="2" y="2" width="20" height="20" fill="white"/>
</clipPath>
<clipPath id="clip1">
<rect x="2" y="2" width="20" height="20" fill="white"/>
</clipPath>
</defs>
</svg>
