<svg width="48" height="48" viewBox="0 0 48 48" fill="none" xmlns="http://www.w3.org/2000/svg">
<path opacity="0.3" fill-rule="evenodd" clip-rule="evenodd" d="M37 16C39.7614 16 42 13.7614 42 11C42 8.23858 39.7614 6 37 6C34.2386 6 32 8.23858 32 11C32 13.7614 34.2386 16 37 16ZM37 42C39.7614 42 42 39.7614 42 37C42 34.2386 39.7614 32 37 32C34.2386 32 32 34.2386 32 37C32 39.7614 34.2386 42 37 42ZM16 37C16 39.7614 13.7614 42 11 42C8.23858 42 6 39.7614 6 37C6 34.2386 8.23858 32 11 32C13.7614 32 16 34.2386 16 37Z" fill="#0A44A5"/>
<path fill-rule="evenodd" clip-rule="evenodd" d="M12 16C14.7614 16 17 13.7614 17 11C17 8.23858 14.7614 6 12 6C9.23858 6 7 8.23858 7 11C7 13.7614 9.23858 16 12 16ZM21 9C21 8.44772 21.4477 8 22 8H28C28.5523 8 29 8.44772 29 9V11C29 11.5523 28.5523 12 28 12H22C21.4477 12 21 11.5523 21 11V9ZM22 36C21.4477 36 21 36.4477 21 37V39C21 39.5523 21.4477 40 22 40H28C28.5523 40 29 39.5523 29 39V37C29 36.4477 28.5523 36 28 36H22ZM9 21C9 20.4477 9.44772 20 10 20H12C12.5523 20 13 20.4477 13 21V27C13 27.5523 12.5523 28 12 28H10C9.44772 28 9 27.5523 9 27V21ZM38 20C37.4477 20 37 20.4477 37 21V27C37 27.5523 37.4477 28 38 28H40C40.5523 28 41 27.5523 41 27V21C41 20.4477 40.5523 20 40 20H38Z" fill="#0A44A5"/>
</svg>
