<svg width="18" height="18" viewBox="0 0 18 18" fill="none" xmlns="http://www.w3.org/2000/svg">
<mask id="mask0" mask-type="alpha" maskUnits="userSpaceOnUse" x="2" y="2" width="14" height="14">
<path d="M14.6249 11.7676V13.4551C14.6256 13.6117 14.5935 13.7668 14.5307 13.9103C14.468 14.0539 14.3759 14.1827 14.2605 14.2886C14.145 14.3945 14.0088 14.4751 13.8604 14.5253C13.712 14.5755 13.5547 14.5942 13.3987 14.5801C11.6678 14.392 10.0051 13.8005 8.54431 12.8532C7.18521 11.9896 6.03293 10.8373 5.16931 9.47818C4.21867 8.01073 3.62707 6.33999 3.44243 4.6013C3.42838 4.44575 3.44686 4.28898 3.49671 4.14097C3.54657 3.99295 3.62669 3.85694 3.73199 3.74159C3.83729 3.62624 3.96545 3.53408 4.10831 3.47097C4.25118 3.40787 4.40562 3.3752 4.56181 3.37505H6.24931C6.52229 3.37237 6.78694 3.46904 6.99392 3.64704C7.20091 3.82505 7.3361 4.07224 7.37431 4.34255C7.44553 4.88259 7.57762 5.41284 7.76806 5.92318C7.84374 6.12451 7.86012 6.34332 7.81525 6.55367C7.77039 6.76403 7.66617 6.95712 7.51493 7.11005L6.80056 7.82443C7.60131 9.23267 8.76731 10.3987 10.1756 11.1994L10.8899 10.4851C11.0429 10.3338 11.236 10.2296 11.4463 10.1847C11.6567 10.1399 11.8755 10.1562 12.0768 10.2319C12.5871 10.4224 13.1174 10.5545 13.6574 10.6257C13.9307 10.6642 14.1802 10.8019 14.3586 11.0124C14.537 11.2229 14.6318 11.4917 14.6249 11.7676Z" stroke="black" stroke-width="1.5" stroke-linecap="round" stroke-linejoin="round"/>
</mask>
<g mask="url(#mask0)">
<path d="M14.6249 11.7676V13.4551C14.6256 13.6117 14.5935 13.7668 14.5307 13.9103C14.468 14.0539 14.3759 14.1827 14.2605 14.2886C14.145 14.3945 14.0088 14.4751 13.8604 14.5253C13.712 14.5755 13.5547 14.5942 13.3987 14.5801C11.6678 14.392 10.0051 13.8005 8.54431 12.8532C7.18521 11.9896 6.03293 10.8373 5.16931 9.47818C4.21867 8.01073 3.62707 6.33999 3.44243 4.6013C3.42838 4.44575 3.44686 4.28898 3.49671 4.14097C3.54657 3.99295 3.62669 3.85694 3.73199 3.74159C3.83729 3.62624 3.96545 3.53408 4.10831 3.47097C4.25118 3.40787 4.40562 3.3752 4.56181 3.37505H6.24931C6.52229 3.37237 6.78694 3.46904 6.99392 3.64704C7.20091 3.82505 7.3361 4.07224 7.37431 4.34255C7.44553 4.88259 7.57762 5.41284 7.76806 5.92318C7.84374 6.12451 7.86012 6.34332 7.81525 6.55367C7.77039 6.76403 7.66617 6.95712 7.51493 7.11005L6.80056 7.82443C7.60131 9.23267 8.76731 10.3987 10.1756 11.1994L10.8899 10.4851C11.0429 10.3338 11.236 10.2296 11.4463 10.1847C11.6567 10.1399 11.8755 10.1562 12.0768 10.2319C12.5871 10.4224 13.1174 10.5545 13.6574 10.6257C13.9307 10.6642 14.1802 10.8019 14.3586 11.0124C14.537 11.2229 14.6318 11.4917 14.6249 11.7676Z" stroke="black" stroke-width="1.5" stroke-linecap="round" stroke-linejoin="round"/>
<rect x="0.75" width="18" height="18" fill="white"/>
</g>
</svg>
