<svg width="20" height="20" viewBox="0 0 20 20" fill="none" xmlns="http://www.w3.org/2000/svg">
<mask id="mask0" mask-type="alpha" maskUnits="userSpaceOnUse" x="3" y="3" width="15" height="14">
<path d="M16.2499 13.0751V14.9501C16.2506 15.1241 16.2149 15.2964 16.1452 15.4559C16.0755 15.6154 15.9732 15.7586 15.8449 15.8762C15.7167 15.9939 15.5653 16.0835 15.4004 16.1393C15.2355 16.195 15.0608 16.2157 14.8874 16.2001C12.9642 15.9911 11.1168 15.3339 9.49365 14.2813C7.98354 13.3217 6.70323 12.0414 5.74365 10.5313C4.68738 8.90081 4.03005 7.04443 3.8249 5.11256C3.80928 4.93973 3.82982 4.76554 3.88521 4.60108C3.9406 4.43662 4.02963 4.28549 4.14663 4.15732C4.26362 4.02916 4.40603 3.92675 4.56477 3.85664C4.72351 3.78652 4.89511 3.75022 5.06865 3.75006H6.94365C7.24696 3.74708 7.54102 3.85448 7.771 4.05227C8.00098 4.25005 8.1512 4.52471 8.19365 4.82506C8.27279 5.4251 8.41955 6.01427 8.63115 6.58131C8.71524 6.80501 8.73344 7.04813 8.68359 7.28186C8.63374 7.51559 8.51794 7.73013 8.3499 7.90006L7.55615 8.69381C8.44587 10.2585 9.74143 11.5541 11.3061 12.4438L12.0999 11.6501C12.2698 11.482 12.4844 11.3662 12.7181 11.3164C12.9518 11.2665 13.1949 11.2847 13.4186 11.3688C13.9857 11.5804 14.5749 11.7272 15.1749 11.8063C15.4785 11.8491 15.7558 12.0021 15.954 12.236C16.1522 12.4699 16.2575 12.7685 16.2499 13.0751Z" stroke="black" stroke-width="1.5" stroke-linecap="round" stroke-linejoin="round"/>
</mask>
<g mask="url(#mask0)">
<path d="M16.2499 13.0751V14.9501C16.2506 15.1241 16.2149 15.2964 16.1452 15.4559C16.0755 15.6154 15.9732 15.7586 15.8449 15.8762C15.7167 15.9939 15.5653 16.0835 15.4004 16.1393C15.2355 16.195 15.0608 16.2157 14.8874 16.2001C12.9642 15.9911 11.1168 15.3339 9.49365 14.2813C7.98354 13.3217 6.70323 12.0414 5.74365 10.5313C4.68738 8.90081 4.03005 7.04443 3.8249 5.11256C3.80928 4.93973 3.82982 4.76554 3.88521 4.60108C3.9406 4.43662 4.02963 4.28549 4.14663 4.15732C4.26362 4.02916 4.40603 3.92675 4.56477 3.85664C4.72351 3.78652 4.89511 3.75022 5.06865 3.75006H6.94365C7.24696 3.74708 7.54102 3.85448 7.771 4.05227C8.00098 4.25005 8.1512 4.52471 8.19365 4.82506C8.27279 5.4251 8.41955 6.01427 8.63115 6.58131C8.71524 6.80501 8.73344 7.04813 8.68359 7.28186C8.63374 7.51559 8.51794 7.73013 8.3499 7.90006L7.55615 8.69381C8.44587 10.2585 9.74143 11.5541 11.3061 12.4438L12.0999 11.6501C12.2698 11.482 12.4844 11.3662 12.7181 11.3164C12.9518 11.2665 13.1949 11.2847 13.4186 11.3688C13.9857 11.5804 14.5749 11.7272 15.1749 11.8063C15.4785 11.8491 15.7558 12.0021 15.954 12.236C16.1522 12.4699 16.2575 12.7685 16.2499 13.0751Z" stroke="black" stroke-width="1.5" stroke-linecap="round" stroke-linejoin="round"/>
<rect x="0.833374" width="20" height="20" fill="#182C4F"/>
</g>
</svg>
