<svg width="32" height="32" viewBox="0 0 32 32" fill="none" xmlns="http://www.w3.org/2000/svg">
<path fill-rule="evenodd" clip-rule="evenodd" d="M14.1144 8.45742L12.2287 10.343L15.0572 13.1715C15.5779 13.6922 15.5779 14.5364 15.0572 15.0571C14.5365 15.5778 13.6922 15.5778 13.1715 15.0571L10.3431 12.2287L8.45752 14.1143L9.40033 15.0571C9.92103 15.5778 9.92103 16.422 9.40033 16.9427C8.87963 17.4634 8.03541 17.4634 7.51471 16.9427L6.57191 15.9999L2.32925 20.2425C1.5482 21.0236 1.5482 22.2899 2.32925 23.071L8.92892 29.6706C9.70996 30.4517 10.9763 30.4517 11.7573 29.6706L29.6707 11.7572C30.4518 10.9762 30.4518 9.70987 29.6707 8.92882L23.0711 2.32915C22.29 1.5481 21.0237 1.5481 20.2426 2.32915L16 6.5718L16.9428 7.51459C17.4635 8.03529 17.4635 8.87951 16.9428 9.40021C16.4221 9.9209 15.5778 9.9209 15.0571 9.40021L14.1144 8.45742ZM4.68631 17.8855L2.80069 19.7711L5.62912 22.5996C6.14981 23.1203 6.99403 23.1203 7.51473 22.5996C8.03543 22.0789 8.03543 21.2346 7.51473 20.7139L4.68631 17.8855ZM19.7713 2.80056L17.8856 4.68618L20.7141 7.51461C21.2348 8.03531 22.079 8.03531 22.5997 7.51461C23.1204 6.99391 23.1204 6.14969 22.5997 5.62899L19.7713 2.80056Z" fill="#0A44A5"/>
</svg>
