<svg width="32" height="32" viewBox="0 0 32 32" fill="none" xmlns="http://www.w3.org/2000/svg">
<path d="M24.7584 8.24287C24.5973 8.08114 24.4059 8 24.1855 8H11.1483C10.9276 8 10.7366 8.08114 10.5754 8.24287C10.4142 8.40482 10.3335 8.59669 10.3335 8.81825V11.2728H8.29638C8.06717 11.2728 7.81878 11.3282 7.55145 11.439C7.28407 11.5499 7.0698 11.6861 6.90859 11.848L4.38765 14.3793C4.27737 14.4901 4.18199 14.6178 4.10118 14.7628C4.0206 14.9074 3.96116 15.0377 3.92295 15.1526C3.88482 15.2677 3.85708 15.4252 3.84027 15.6257C3.82341 15.826 3.81262 15.9731 3.80839 16.0669C3.80433 16.1605 3.80433 16.3225 3.80839 16.5527C3.81267 16.7829 3.81481 16.9319 3.81481 17.0002V21.091C3.5942 21.091 3.40326 21.1719 3.24192 21.3341C3.08067 21.4957 3 21.6876 3 21.9092C3 22.0369 3.01686 22.1499 3.05084 22.2478C3.08486 22.3459 3.14207 22.4246 3.22288 22.4844C3.30346 22.5442 3.37351 22.593 3.43287 22.6315C3.4924 22.6698 3.59211 22.6953 3.73213 22.7081C3.87215 22.721 3.96758 22.7296 4.01855 22.7339C4.06952 22.7378 4.17766 22.7378 4.34315 22.7339C4.50881 22.7296 4.60424 22.7274 4.62975 22.7274H5.44451C5.44451 23.6306 5.76286 24.4019 6.39929 25.0412C7.03595 25.6803 7.80402 26 8.70378 26C9.60345 26 10.3716 25.6803 11.0081 25.0412C11.6448 24.402 11.9629 23.6306 11.9629 22.7274H16.852C16.852 23.6306 17.1703 24.4019 17.8068 25.0412C18.4432 25.6803 19.2114 26 20.1112 26C21.0111 26 21.7788 25.6803 22.4155 25.0412C23.0522 24.402 23.3703 23.6306 23.3703 22.7274C23.3957 22.7274 23.4912 22.7296 23.6566 22.7339C23.8222 22.7378 23.9304 22.7378 23.9814 22.7339C24.0324 22.7296 24.128 22.721 24.268 22.7081C24.4079 22.6953 24.5076 22.6698 24.5671 22.6315C24.6266 22.5932 24.6965 22.5442 24.7771 22.4844C24.8578 22.4246 24.9152 22.3459 24.949 22.2478C24.9834 22.1499 25 22.0368 25 21.9092V8.81838C25.0002 8.59678 24.9196 8.40514 24.7584 8.24287ZM9.84938 23.8779C9.52701 24.2017 9.14494 24.364 8.7036 24.364C8.26222 24.364 7.88023 24.2019 7.55769 23.8779C7.23515 23.5543 7.07394 23.1706 7.07394 22.7275C7.07394 22.2844 7.23533 21.9005 7.55769 21.5767C7.88019 21.2531 8.26217 21.091 8.7036 21.091C9.14494 21.091 9.52697 21.2529 9.84938 21.5767C10.1721 21.9005 10.3333 22.2844 10.3333 22.7275C10.3333 23.1706 10.1721 23.5543 9.84938 23.8779ZM10.3333 16.1819H5.44433V15.7985C5.44433 15.6877 5.48246 15.5939 5.55885 15.5172L8.04153 13.0244C8.11787 12.9476 8.21138 12.9094 8.3217 12.9094H10.3333V16.1819ZM21.2569 23.8779C20.9345 24.2017 20.5525 24.364 20.1112 24.364C19.6697 24.364 19.2875 24.2019 18.9651 23.8779C18.6427 23.5543 18.4813 23.1706 18.4813 22.7275C18.4813 22.2844 18.6426 21.9005 18.9651 21.5767C19.2875 21.2531 19.6697 21.091 20.1112 21.091C20.5525 21.091 20.9345 21.2529 21.2569 21.5767C21.5793 21.9007 21.7408 22.2844 21.7408 22.7275C21.7408 23.1706 21.5797 23.5543 21.2569 23.8779Z" fill="#0A44A5"/>
</svg>
