<svg width="20" height="20" viewBox="0 0 20 20" fill="none" xmlns="http://www.w3.org/2000/svg">
<path fill-rule="evenodd" clip-rule="evenodd" d="M6.66667 6.02941C6.66667 7.97059 8.16667 9.55882 10 9.55882C11.8333 9.55882 13.3333 7.97059 13.3333 6.02941C13.3333 4.08824 11.8333 2.5 10 2.5C8.16667 2.5 6.66667 4.08824 6.66667 6.02941ZM10 7.79412C10.9129 7.79412 11.6667 6.99597 11.6667 6.02941C11.6667 5.06286 10.9129 4.26471 10 4.26471C9.08714 4.26471 8.33333 5.06286 8.33333 6.02941C8.33333 6.99597 9.08714 7.79412 10 7.79412ZM10 11.3235C5.40444 11.3235 2.5 13.3309 2.5 17.5H17.5C17.5 13.3309 14.5956 11.3235 10 11.3235ZM4.45974 15.7353C5.12909 13.979 6.95194 13.0882 9.99998 13.0882C13.048 13.0882 14.8709 13.979 15.5402 15.7353H4.45974Z" fill="#051033" fill-opacity="0.01"/>
<mask id="mask0" mask-type="alpha" maskUnits="userSpaceOnUse" x="2" y="2" width="16" height="16">
<path fill-rule="evenodd" clip-rule="evenodd" d="M6.66667 6.02941C6.66667 7.97059 8.16667 9.55882 10 9.55882C11.8333 9.55882 13.3333 7.97059 13.3333 6.02941C13.3333 4.08824 11.8333 2.5 10 2.5C8.16667 2.5 6.66667 4.08824 6.66667 6.02941ZM10 7.79412C10.9129 7.79412 11.6667 6.99597 11.6667 6.02941C11.6667 5.06286 10.9129 4.26471 10 4.26471C9.08714 4.26471 8.33333 5.06286 8.33333 6.02941C8.33333 6.99597 9.08714 7.79412 10 7.79412ZM10 11.3235C5.40444 11.3235 2.5 13.3309 2.5 17.5H17.5C17.5 13.3309 14.5956 11.3235 10 11.3235ZM4.45974 15.7353C5.12909 13.979 6.95194 13.0882 9.99998 13.0882C13.048 13.0882 14.8709 13.979 15.5402 15.7353H4.45974Z" fill="white"/>
</mask>
<g mask="url(#mask0)">
<rect width="20" height="20" fill="#182C4F"/>
</g>
</svg>
